<svg xmlns="http://www.w3.org/2000/svg" xmlns:xlink="http://www.w3.org/1999/xlink" version="1.1" id="Layer_1" x="0px" y="0px" width="100px" height="100px" viewBox="0 0 100 100" enable-background="new 0 0 100 100" xml:space="preserve">
<ellipse cx="197.327" cy="15.819" rx="19.364" ry="19.577"/>
<polyline points="187.566,50.479 197.148,40.792 207.458,50.327 197.986,79.801 187.566,50.479 "/>
<polyline points="186.063,45.872 187.203,48.787 196.223,39.792 "/>
<polyline points="208.591,45.872 207.637,48.677 198.186,39.683 "/>
<path d="M193.361,89.152l-16.805-50.5c0,0-17.102-2.909-19.086,6.916v36.636"/>
<path d="M237.195,82.203V45.567c-1.985-9.825-19.088-6.916-19.088-6.916l-16.803,50.501 M229.542,70.7H218.25l-1-10.563h13.292  L229.542,70.7z"/>
<rect x="219.25" y="61.875" width="9.48" height="1.042"/>
<polygon points="-229.52,-264.188 -239.152,-258.821 -205.845,-258.821 -214.84,-264.188 "/>
<path d="M-139.569,138.422c0,1.332-1.08,2.411-2.411,2.411h-4.196c-1.331,0-2.411-1.079-2.411-2.411l0,0  c0-1.332,1.08-2.411,2.411-2.411h4.196C-140.649,136.011-139.569,137.09-139.569,138.422L-139.569,138.422z"/>
<path d="M-91.5,125.875c0,0,3.009,9.75,14.004,9.25"/>
<path d="M-242.995-256.659c-16.44,6.478-5.729,34.149-5.729,34.149l28.013,0.011l-1.44-23.579L-242.995-256.659z"/>
<path d="M-201.49-256.667c16.44,6.478,5.729,34.149,5.729,34.149l-26.527,0.01l0.136-23.57L-201.49-256.667z"/>
<path d="M-54.454,124.383l-2.687-0.73c0,0,4.284-1.814,4.792-2.396c0.508-0.581,0.726-10.528,0.726-10.528s6.752-10.455,15.174,0  v7.986c0,0,2.687,4.938,4.356,5.083c1.669,0.146-1.815,0.585-1.815,0.585s1.705,0.794,2.268,0.794s-3.134,5.519-6.041,3.776  l-1.6-2.979l-0.726-2.031l-2.033-1.309c0,0-2.323-1.017-2.904-1.017s-1.888,0-1.888,0h-1.943l-1.542,0.728l-0.581,0.58l-0.073,0.436  l1.307,1.889c0,0-1.67,4.021-3.267,4.043c0,0-5.308-0.938-3.558-3.825C-54.737,122.579-54.454,124.383-54.454,124.383z"/>
<circle cx="55.13" cy="146.365" r="16.251"/>
<circle cx="92.68" cy="146.365" r="16.251"/>
<polygon points="129.053,174.05 129.053,203.505 110.77,196.396 110.77,181.837 "/>
<path d="M105.574,165.869H43.283c-3.421,0-6.195,2.773-6.195,6.196v33.424c0,3.423,2.774,6.196,6.195,6.196h62.291  c3.422,0,6.195-2.773,6.195-6.196v-25.268v-8.156C111.77,168.643,108.996,165.869,105.574,165.869z M92.55,201.478H56.308v-25.4  H92.55V201.478z M102.152,178.325c-1.882,0-3.407-1.526-3.407-3.408s1.525-3.407,3.407-3.407s3.407,1.525,3.407,3.407  S104.034,178.325,102.152,178.325z"/>
<ellipse cx="-154.561" cy="-47.604" rx="14.969" ry="14.818"/>
<ellipse cx="-184.5" cy="-47.604" rx="14.969" ry="14.818"/>
<polygon points="-130.401,-36.728 -130.401,-11.702 -150.361,-18.089 -150.361,-29.582 "/>
<rect x="-176.244" y="-12.702" width="15.193" height="16.229"/>
<rect x="-171.75" y="2.528" width="6.419" height="26.965"/>
<path d="M-184.162,30.636"/>
<polygon points="-186.719,25.785 -175.211,-2.035 -171.75,3.528 -183.129,28.352 "/>
<polygon points="-150.362,25.785 -161.87,-2.035 -165.331,3.528 -153.952,28.352 "/>
<path d="M-191.784-34.155v22.454h44.151v-16.935v-5.519H-191.784z M-150.361-14.792h-3.075v-16.822h3.075V-14.792z"/>
<path d="M108.932-162.246c-26.371,0-47.75,21.379-47.75,47.75c0,26.372,21.379,47.75,47.75,47.75c26.372,0,47.75-21.378,47.75-47.75  C156.682-140.867,135.304-162.246,108.932-162.246z M92.17-106.848v7.025h-7.025v-7.025H92.17z M99.195-113.881v7.025H92.17v-7.025  H99.195z M106.133-120.943v7.025h-7.025v-7.025H106.133z M113.07-128.006v7.025h-7.025v-7.025H113.07z M120.136-121.006v7.025  h-7.025v-7.025H120.136z M127.161-113.943v7.025h-7.025v-7.025H127.161z M134.16-106.926v7.025h-7.025v-7.025H134.16z"/>
<path d="M418.039-71.298c-26.004,0-47.084,21.08-47.084,47.083c0,26.003,21.08,47.083,47.084,47.083  c26.003,0,47.083-21.08,47.083-47.083C465.122-50.218,444.042-71.298,418.039-71.298z M417.876,16.979  c-22.751,0-41.194-18.443-41.194-41.193c0-22.75,18.443-41.194,41.194-41.194c22.75,0,41.194,18.443,41.194,41.194  C459.07-1.464,440.626,16.979,417.876,16.979z"/>
<polygon points="408.277,-3.679 409.912,-2.585 427.657,-23.908 426.348,-25.154 "/>
<polygon points="427.185,-24.23 425.583,-23.087 407.217,-43.878 408.49,-45.163 "/>
<circle cx="-467.445" cy="-104.462" r="5.937"/>
<polygon points="-442.482,-145.438 -439.768,-142.724 -463.188,-108.595 -466.011,-110.399 "/>
<polygon points="-464.563,-98.526 -442.482,-75.359 -437.921,-81.729 -462.274,-101.552 "/>
<rect x="-519.874" y="-108.595" width="15.348" height="5.725"/>
<rect x="-413.016" y="-108.595" width="15.348" height="5.725"/>
<rect x="-472.236" y="-163.616" transform="matrix(0.0151 -0.9999 0.9999 0.0151 -296.8074 -622.8329)" width="15.348" height="5.725"/>
<rect x="-473.684" y="-55.02" transform="matrix(0.0151 -0.9999 0.9999 0.0151 -406.8166 -517.3268)" width="15.348" height="5.725"/>
<polygon points="-499.604,-24.97 -490.047,-20.916 -494.825,-0.066 -509.16,-5.857 "/>
<polygon points="-405.342,-19.757 -395.642,-24.97 -382.321,1.093 -397.668,8.5 "/>
<path d="M-507.986-155.092c0,0-61.704,65.52,57.69,128.066v5.207c0,0-130.809-42.983-64.204-133.273H-507.986z"/>
<path d="M-406.052-182.313c0,0-61.704,65.52,57.69,128.066v5.207c0,0-130.809-42.983-64.204-133.273H-406.052z"/>
<path d="M254.046,282.677h-69.593c-5.055,0-9.154,4.098-9.154,9.154v59.584c0,5.057,4.1,9.154,9.154,9.154h69.593  c5.055,0,9.154-4.098,9.154-9.154v-59.584C263.2,286.774,259.101,282.677,254.046,282.677z M258.511,312.88  c0,5.455-4.515,9.878-10.079,9.878h-58.069c-5.567,0-10.079-4.423-10.079-9.878v-11.207c0-5.455,4.512-9.879,10.079-9.879h58.069  c5.564,0,10.079,4.424,10.079,9.879V312.88z"/>
<path d="M199.584,297.978c0,2.697-2.188,4.885-4.886,4.885l0,0c-2.698,0-4.885-2.188-4.885-4.885v-18.593  c0-2.697,2.187-4.885,4.885-4.885l0,0c2.698,0,4.886,2.188,4.886,4.885V297.978z"/>
<path d="M215.262,297.978c0,2.697-2.188,4.885-4.885,4.885l0,0c-2.699,0-4.885-2.188-4.885-4.885v-18.593  c0-2.697,2.186-4.885,4.885-4.885l0,0c2.697,0,4.885,2.188,4.885,4.885V297.978z"/>
<path d="M232.759,297.978c0,2.697-2.188,4.885-4.887,4.885l0,0c-2.698,0-4.885-2.188-4.885-4.885v-18.593  c0-2.697,2.187-4.885,4.885-4.885l0,0c2.698,0,4.887,2.188,4.887,4.885V297.978z"/>
<path d="M249.118,297.978c0,2.697-2.188,4.885-4.887,4.885l0,0c-2.697,0-4.884-2.188-4.884-4.885v-18.593  c0-2.697,2.187-4.885,4.884-4.885l0,0c2.698,0,4.887,2.188,4.887,4.885V297.978z"/>
<rect x="448.255" y="73.925" width="10.593" height="75.459"/>
<rect x="524.034" y="73.925" width="10.59" height="75.459"/>
<rect x="448.255" y="137.915" width="86.369" height="11.469"/>
<rect x="464.412" y="95.676" width="11.128" height="10.521"/>
<rect x="485.876" y="95.676" width="11.129" height="10.521"/>
<rect x="507.724" y="95.676" width="11.127" height="10.521"/>
<rect x="464.412" y="117.115" width="11.128" height="10.522"/>
<rect x="485.876" y="117.115" width="11.129" height="10.522"/>
<rect x="507.724" y="117.115" width="11.127" height="10.522"/>
<path d="M480.5,79.74c0,3.073-2.49,5.564-5.563,5.564l0,0c-3.073,0-5.564-2.491-5.564-5.564V68.576c0-3.072,2.491-5.563,5.564-5.563  l0,0c3.072,0,5.563,2.491,5.563,5.563V79.74z"/>
<path d="M513.288,79.508c0,3.073-2.492,5.564-5.563,5.564l0,0c-3.074,0-5.564-2.491-5.564-5.564V68.346  c0-3.074,2.49-5.564,5.564-5.564l0,0c3.07,0,5.563,2.49,5.563,5.564V79.508z"/>
<path d="M328.966,355.511v0.685v56.462l49.618,13.174v-53.553L328.966,355.511z M367.291,397.825l-28.401-6.673v-19.334  l28.401,7.357V397.825z"/>
<polyline points="395.063,363.938 395.751,418.039 380.658,425.206 380.658,371.962 "/>
<polygon points="380.25,370.75 330,353.375 338.545,342.521 394.605,362.162 "/>
<rect x="373.127" y="-197.854" width="5.457" height="79.389"/>
<rect x="311.938" y="-123.72" width="66.628" height="5.457"/>
<rect x="311.938" y="-203.243" width="6.435" height="10.559"/>
<rect x="311.938" y="-179.065" width="6.458" height="9.276"/>
<rect x="311.938" y="-159.874" width="6.458" height="9.277"/>
<rect x="312.371" y="-138.467" width="6.024" height="9.359"/>
<rect x="-59.815" y="673.615" width="3.968" height="1.984"/>
<path d="M318.372-203.243v74.136h50.936v-74.136H318.372z M362.577-165.2h-36.565v-26.273h36.565V-165.2z"/>
<rect x="330.562" y="-185.115" width="27.103" height="4.638"/>
<rect x="330.562" y="-176.04" width="27.103" height="4.638"/>
<polygon points="557.964,-48.615 571.741,-34.839 571.741,-11.554 543.922,-11.554 543.922,-35.554 "/>
<polygon points="587.611,-48.18 601.389,-34.403 601.389,-11.118 573.569,-11.118 573.569,-35.118 "/>
<path d="M572.443-84.089c-10.694,0-19.364,8.765-19.364,19.577c0,10.812,8.67,19.576,19.364,19.576s19.364-8.765,19.364-19.576  C591.808-75.324,583.138-84.089,572.443-84.089z M563.522-66.901c-1.471,0-2.662-1.191-2.662-2.662c0-1.47,1.191-2.661,2.662-2.661  c1.47,0,2.661,1.191,2.661,2.661C566.184-68.093,564.992-66.901,563.522-66.901z M566.587-57.114h11.712  C572.205-51.666,566.587-57.114,566.587-57.114z M581.107-66.901c-1.471,0-2.662-1.191-2.662-2.662c0-1.47,1.191-2.661,2.662-2.661  c1.47,0,2.661,1.191,2.661,2.661C583.769-68.093,582.577-66.901,581.107-66.901z"/>
<rect x="-260.441" y="37.141" width="5.941" height="21.029"/>
<rect x="-260.6" y="112.876" width="5.941" height="19.803"/>
<rect x="-455.255" y="416.258" width="5.941" height="21.758"/>
<path d="M-273.18,112.646V58.048h8.487V37.141h-6.224c0,0-38.085,35.438,0.01,95.863h6.047V112.75L-273.18,112.646z"/>
<polyline points="-127.897,-194.767 -127.897,-154.931 -41.099,-154.931 -41.099,-198.578 -85.945,-172.006 -127.897,-198.491 "/>
<polyline points="-125.235,-201.469 -113.35,-194.767 -113.35,-203.34 -57.771,-203.34 -57.771,-194.767 -43.669,-201.967   -85.82,-225.075 -125.235,-201.469 "/>
<rect x="-95.818" y="-198.491" width="19.396" height="3.724"/>
<rect x="-96.004" y="-191.025" width="19.397" height="3.724"/>
<path d="M-108.473,446.492c-31.402,0-56.858,25.968-56.858,58s25.456,58,56.858,58s56.858-25.968,56.858-58  S-77.071,446.492-108.473,446.492z M-108.473,526.279c-11.796,0-21.358-9.755-21.358-21.787s9.562-21.787,21.358-21.787  s21.357,9.755,21.357,21.787S-96.677,526.279-108.473,526.279z M-108.473,515.864c-6.156,0-11.147-5.093-11.147-11.372  s4.991-11.372,11.147-11.372c6.156,0,11.146,5.093,11.146,11.372S-102.317,515.864-108.473,515.864z"/>
<path d="M3-395.238v38.438c0,2.63,2.131,4.762,4.761,4.762h84.663c2.627,0,4.76-2.132,4.76-4.762v-38.438  c0-2.63-2.133-4.762-4.76-4.762H7.761C5.131-400,3-397.868,3-395.238z M11.502-371.899v-6.375c0-0.807,0.56-1.46,1.251-1.46  c0.69,0,1.25,0.654,1.25,1.46v6.375c0,0.807-0.56,1.461-1.25,1.461C12.063-370.438,11.502-371.093,11.502-371.899z M6.434-375.014  c0-0.603,0.489-1.092,1.091-1.092c0.604,0,1.092,0.489,1.092,1.092c0,0.604-0.489,1.093-1.092,1.093  C6.922-373.921,6.434-374.41,6.434-375.014z M93.332-376.27c0,2.519-2.041,4.561-4.561,4.561c-2.518,0-4.561-2.042-4.561-4.561  c0-2.519,2.043-4.561,4.561-4.561C91.291-380.831,93.332-378.789,93.332-376.27z M80.975-396.616v41.194H18.889v-41.194H80.975z   M90.322-375.789c0,0.636-0.516,1.151-1.151,1.151h-0.845c-0.636,0-1.151-0.516-1.151-1.151v-0.871c0-0.636,0.516-1.151,1.151-1.151  h0.845c0.636,0,1.151,0.515,1.151,1.151V-375.789z"/>
<path d="M-406.471,88.329c0,0-8.665-20.538-10.912-24.068c0,0,25.031,0.643,27.598,12.034h7.382v12.034H-406.471z"/>
<path d="M-404.868,90.068c0,0,22.466,56.094-23.746,65.08c0,0-4.277,2.262,1.179,3.866c0,0,34.121,0.627,37.331-3.545v3.564h9.628  v-22.499c0,0-6.805-40.049-2.633-46.467H-404.868z"/>
<path d="M-109.814-63.017c0,0,24.691,35.77,70.153-27l15-8.538v65.769h-7.846v-57.231c0,0-28.006,39.753-25.93,55.214  c0,0-43.087,4.53-46.087-1.238C-107.523-41.809-109.814-63.017-109.814-63.017z"/>
<polygon points="-76.815,-58.217 -95.507,-71.602 -86.453,-79.833 -67.237,-64.85 "/>
<path d="M-25.697-122.21l-7.434,1.517c-0.745,5.664-2.144,14.038-2.144,14.038c-6.558-2.683-8.687,2.684-8.687,2.684  c-1.64,0.447-24.451-8.217-24.451-8.217l-4.954,5.534c0.732,3.386,30.981,9.011,27.629,8.43l8.217,7.125l5.549-3.292l0.691-8.311   M-38.626-97.919c-1.968,0-3.563-1.596-3.563-3.564c0-1.969,1.596-3.564,3.563-3.564c1.969,0,3.564,1.595,3.564,3.564  C-35.062-99.515-36.657-97.919-38.626-97.919z"/>
<circle cx="-201.638" cy="307.679" r="1.22"/>
<circle cx="-196.494" cy="308.617" r="1.22"/>
<path d="M-194.743,309.837c0,0,5.515,1.909,5.568,2.917l-0.742,3.659l3.553,1.591c0,0,0,0.584-0.689,0.955l-4.402-1.592l0.49-2.683  l-1.604,0.408l-0.69,3.653c0,0-1.22,0.265-1.114-0.371l0.266-3.579l0.901-0.929l0.743-0.795l-2.812-1.114l-1.22,1.962l-3.341,0.476  v-1.165l2.917-0.477C-196.917,312.754-195.148,309.692-194.743,309.837z"/>
<path d="M-195.383,313.82l-2.331,2.593c0,0,0.318,0.584,0.69,0.637l2.546-3.018v-1.49h-0.796L-195.383,313.82z"/>
<path d="M-201.489,311.869l2.412-0.051c0,0,0.267,0.96,0,1.067l-3.781,0.214l-0.381-1.708l-1.323,1.726l2.508,1.44l0.417,4.945  l-0.96,0.214l-0.961-4.163l-2.028-0.906l-0.33,2.402l-3.672,2.934l-0.694-1.228l3.042-2.722l0.267-2.935l3.033-4.356  c-0.129-0.005,0.64,0.014,1.375,0.561L-201.489,311.869z"/>
<path d="M87.205,11.326c0,4.564-3.7,8.271-8.264,8.271c-4.573,0-8.279-3.707-8.279-8.271c0-4.565,3.706-8.271,8.279-8.271  C83.505,3.055,87.205,6.76,87.205,11.326z"/>
<path d="M73.154,41.471L66.908,20.12l-27.1-13.68l-25.228,6.177v6.98l23.023-5.521l11.667,6.986L27.113,34.477  c0,0-3.79,5.528,0.29,11.07l8.159,17.197H8.17l0.886,10.777h41.952l-8.742-23.02l-2.321-8.166l17.47-10.19l4.286-2.094l5.813,20.408  l28.079-6.079v-6.408L73.154,41.471z"/>
<polygon points="3.508,88.975 19.537,77.611 35.562,77.611 9.919,98.006 "/>
<circle cx="-480.446" cy="-408.403" r="7.168"/>
<path d="M-478.473-370.625l-7.168,13.724l-17.69,11.896l3.659,8.538l21.71-15.117l6.658-14.158l13.721,7.931l1.526,21.345h7.625  v-25.924l-18.606-12.808l-4.266-22.268c0,0-3.665-4.573-10.679-1.828l-9.759,4.876l-8.193,15.593l6.264,2.03l7.871-12.961  l4.117-1.245l1.482,5.793l-2.756,5.336l-12.721,1.654l-0.479,7.169l16.07-4.763l1.767-3.359l-0.153,6.407"/>
<polyline points="-499.526,-383.235 -527.12,-396.709 -531.022,-389.374 -504.098,-375.901 "/>
<polyline points="-504.456,-377.907 -495.882,-373.287 -494.593,-378.514 -501.598,-382.003 -504.456,-376.99 "/>
<circle cx="-446.613" cy="-372.441" r="4.131"/>
</svg>